{
    "asset" : {
        "generator" : "Khronos glTF Blender I/O v1.8.19",
        "version" : "2.0"
    },
    "scene" : 0,
    "scenes" : [
        {
            "name" : "Scene",
            "nodes" : [
                0,
                1
            ]
        }
    ],
    "nodes" : [
        {
            "mesh" : 0,
            "name" : "b1_floor"
        },
        {
            "mesh" : 1,
            "name" : "bl_wall"
        }
    ],
    "materials" : [
        {
            "doubleSided" : true,
            "name" : "mat_floor",
            "pbrMetallicRoughness" : {
                "baseColorFactor" : [
                    0.800000011920929,
                    0.800000011920929,
                    0.800000011920929,
                    1
                ],
                "metallicFactor" : 0
            }
        },
        {
            "doubleSided" : true,
            "name" : "mat_wall",
            "pbrMetallicRoughness" : {
                "baseColorFactor" : [
                    0.7043628096580505,
                    0.6545200943946838,
                    0.49402689933776855,
                    1
                ],
                "metallicFactor" : 0
            }
        }
    ],
    "meshes" : [
        {
            "name" : "Curve.003",
            "primitives" : [
                {
                    "attributes" : {
                        "POSITION" : 0,
                        "NORMAL" : 1,
                        "TEXCOORD_0" : 2
                    },
                    "indices" : 3,
                    "material" : 0
                }
            ]
        },
        {
            "name" : "Curve.004",
            "primitives" : [
                {
                    "attributes" : {
                        "POSITION" : 4,
                        "NORMAL" : 5,
                        "TEXCOORD_0" : 6
                    },
                    "indices" : 7,
                    "material" : 1
                }
            ]
        }
    ],
    "accessors" : [
        {
            "bufferView" : 0,
            "componentType" : 5126,
            "count" : 18,
            "max" : [
                6.640393257141113,
                0,
                4.740877628326416
            ],
            "min" : [
                -6.849879264831543,
                0,
                -6.434683322906494
            ],
            "type" : "VEC3"
        },
        {
            "bufferView" : 1,
            "componentType" : 5126,
            "count" : 18,
            "type" : "VEC3"
        },
        {
            "bufferView" : 2,
            "componentType" : 5126,
            "count" : 18,
            "type" : "VEC2"
        },
        {
            "bufferView" : 3,
            "componentType" : 5123,
            "count" : 42,
            "type" : "SCALAR"
        },
        {
            "bufferView" : 4,
            "componentType" : 5126,
            "count" : 952,
            "max" : [
                6.642989158630371,
                0.8000000715255737,
                4.742848873138428
            ],
            "min" : [
                -6.847283840179443,
                -2.9802322387695312e-08,
                -6.432712078094482
            ],
            "type" : "VEC3"
        },
        {
            "bufferView" : 5,
            "componentType" : 5126,
            "count" : 952,
            "type" : "VEC3"
        },
        {
            "bufferView" : 6,
            "componentType" : 5126,
            "count" : 952,
            "type" : "VEC2"
        },
        {
            "bufferView" : 7,
            "componentType" : 5123,
            "count" : 1596,
            "type" : "SCALAR"
        }
    ],
    "bufferViews" : [
        {
            "buffer" : 0,
            "byteLength" : 216,
            "byteOffset" : 0
        },
        {
            "buffer" : 0,
            "byteLength" : 216,
            "byteOffset" : 216
        },
        {
            "buffer" : 0,
            "byteLength" : 144,
            "byteOffset" : 432
        },
        {
            "buffer" : 0,
            "byteLength" : 84,
            "byteOffset" : 576
        },
        {
            "buffer" : 0,
            "byteLength" : 11424,
            "byteOffset" : 660
        },
        {
            "buffer" : 0,
            "byteLength" : 11424,
            "byteOffset" : 12084
        },
        {
            "buffer" : 0,
            "byteLength" : 7616,
            "byteOffset" : 23508
        },
        {
            "buffer" : 0,
            "byteLength" : 3192,
            "byteOffset" : 31124
        }
    ],
    "buffers" : [
        {
            "byteLength" : 34316,
            "uri" : "data:application/octet-stream;base64,"
        }
    ]
}
